<?xml version="1.0" encoding="utf-8"?>
<!-- Generator: Adobe Illustrator 27.0.0, SVG Export Plug-In . SVG Version: 6.00 Build 0)  -->
<svg version="1.1" id="Capa_1" xmlns="http://www.w3.org/2000/svg" xmlns:xlink="http://www.w3.org/1999/xlink" x="0px" y="0px"
	 viewBox="0 0 351.54 265.22" style="enable-background:new 0 0 351.54 265.22;" xml:space="preserve">
<style type="text/css">
	.st0{fill:#ACCFD8;}
	.st1{fill:#FEFAF4;}
	.st2{fill:#37363C;}
	.st3{fill:#F0958D;}
	.st4{fill:#FFFFFF;}
	.st5{fill:#F0B48C;}
	.st6{fill:none;stroke:#37363C;stroke-width:1.2749;stroke-miterlimit:10;}
	.st7{fill:none;stroke:#37363C;stroke-linecap:round;stroke-linejoin:round;stroke-miterlimit:10;}
</style>
<circle class="st0" cx="134.41" cy="112.15" r="107.75"/>
<g>
	<g id="XMLID_00000001663135245742607990000007577538149363599260_">
		<g>
			<path class="st1" d="M158.81,251.92l-6.32,0c0.02-0.71,0.62-13.32,18.68-16.36c2.49-0.42,5.31-0.66,8.5-0.66
				c3.63,0,7.37-0.03,11.18-0.1c32.27-0.58,69.55-4.17,89.6-19.83c14.1,3.89,24.76,17.9,26.42,32.91
				c-17.75,8.73-43.49,12.68-80.76,6.57c-8.28-1.42-16.52-2.54-25.27-2.54c-3.49,0-16.77,0.01-28.53,0.02c-0.08,0-0.16,0-0.24,0
				l-6.83,0L158.81,251.92z"/>
			<path class="st1" d="M163.44,191.7c0,0,27.41,1.92,27.41,43.1c-3.81,0.07-7.54,0.1-11.18,0.1c-3.2,0-6.02,0.24-8.5,0.66
				c-0.82,0.06-17.99,1.5-22.36,11.43l-1.01-0.57l-22.98-2.38c-0.01-0.05-0.03-0.1-0.04-0.16c-0.39-1.38-0.81-2.88-1.26-4.49
				c-0.45-1.62-0.94-3.34-1.45-5.15C142.89,234.23,154.66,226.86,163.44,191.7z"/>
			<path class="st1" d="M255.37,125.49c0.12-0.05,0.25-0.09,0.37-0.14l-0.57,0.15L255.37,125.49z M211.37,59.53
				c0.58-4.25,1.41-8.15,2.45-11.73c8.72,5.79,26.04,13.4,56.78,13.4c0,17.4,14.29,17.83,14.29,17.83l-5.21,13.21l7.18,3.48
				c0,0,0,0,0,0c0.09-0.17,2.02-3.67,4.3-8.68c0.01-0.02,0.02-0.04,0.03-0.06c1.19-2.43,2.4-5.06,3.32-7.51
				c0.27-0.71,0.44-1.59,0.7-2.38c0.48-1.13,1.21-1.77,2.04-2h1.64c1.86,0.46,3.82,2.37,4.75,4.93c3.43,7.71-3.62,20.35-12.28,19.12
				c-0.59-0.08-1.18-0.24-1.78-0.48l-0.17,1.06l-0.93,5.72l-3,18.46l-7.55,46.45c0,0-0.05,0-0.15,0.02c-0.03,0-0.07,0.01-0.11,0.01
				c-4.21,0.42-58.57,5.35-54-25.58c1.89-0.71,10.95-4.53,15.89-13.79h-0.02c-1.53,0.27-2.8,0.52-3.95,0.73
				c-2.75,0.34-5.56,0.4-7.56,0.33l-0.06,0.13c-4.17-0.43-7.63-2-10.41-4.71c-0.04-0.04-0.09-0.09-0.13-0.13
				c-8.82-8.76-10.75-29.13-6.92-61.1C210.76,64.07,211.05,61.83,211.37,59.53z"/>
			<path class="st2" d="M347.47,201c0.87-7.93,0.41-16.59-1.65-25.92C348.01,183.89,348.51,192.64,347.47,201z"/>
			<path class="st2" d="M335.07,232.17c-6.56,8.85-15.78,16.18-27.89,21.16C318.22,248.57,327.92,241.45,335.07,232.17z"/>
			<path class="st0" d="M312.43,131.64c-9.18-4.47-21.07-6.76-25.34-7.48c6.77,0.96,29.54,4.07,45.23,22.66
				C331.13,145.49,322.95,136.76,312.43,131.64z"/>
			<path class="st3" d="M301.11,69.29l-0.09,0.25C301.06,69.44,301.09,69.36,301.11,69.29z"/>
			<path class="st3" d="M298.9,75.09h-1.64C297.77,74.94,298.33,74.94,298.9,75.09z"/>
			<path class="st3" d="M295.08,77.44c0.04-0.12,0.09-0.24,0.14-0.36c-0.26,0.79-0.43,1.67-0.7,2.38c-0.93,2.45-2.13,5.08-3.32,7.51
				C292.47,84.16,293.85,80.88,295.08,77.44z"/>
			<path class="st2" d="M280.83,259.93c6.05-0.55,11.98-1.7,17.66-3.43C292.27,258.43,286.42,259.46,280.83,259.93z"/>
			<path class="st3" d="M277.93,170.35c0,0-0.05,0-0.15,0.02C277.88,170.35,277.93,170.35,277.93,170.35z"/>
			<path class="st4" d="M255.74,125.35c-0.12,0.05-0.25,0.09-0.37,0.14l-0.2,0.01L255.74,125.35z"/>
			<path class="st3" d="M227.45,12.05c30.6-19.57,73.78,1.62,63.72,27.37c0,0,18.53,8.17,10.03,29.59c0,0-0.03,0.1-0.09,0.28
				c-0.03,0.07-0.06,0.15-0.09,0.25c-0.02,0.05-0.03,0.09-0.05,0.15l-1.83,5.4h-0.25c-0.57-0.14-1.12-0.15-1.64,0h-0.68
				c-0.7,0.39-1.08,1.15-1.36,2c-0.05,0.11-0.1,0.23-0.14,0.36c-1.23,3.44-2.61,6.72-3.88,9.53c-0.01,0.02-0.02,0.04-0.03,0.06
				c-1.96,4.02-3.86,7.49-4.3,8.68c0,0,0,0,0,0l-7.18-3.48l5.21-13.21c0,0-14.29-0.42-14.29-17.83c-30.75,0-48.06-7.61-56.78-13.4
				c-5.35-3.55-7.46-6.41-7.46-6.41S211.04,22.54,227.45,12.05z"/>
			<path class="st2" d="M227.2,133.89l0.38-0.91c0.05-0.1,0.1-0.21,0.15-0.31l0.24-0.47c0.02,0,0.04,0,0.06,0.01
				c3.08,0.24,5.06-0.01,7.56-0.47c1.37-0.17,2.72-0.41,3.95-0.73h0.02c-4.94,9.25-14,13.08-15.89,13.79
				c0.12-0.85,0.29-1.72,0.51-2.63l1.28-4.1L227.2,133.89z"/>
			<path class="st2" d="M226.12,254.45c37.27,6.11,63.01,2.16,80.76-6.57c44.07-21.67,38.94-72.8,38.94-72.8
				c2.07,9.33,2.53,17.99,1.65,25.92c-1.41,11.41-5.67,22.09-12.4,31.17l0,0c-7.15,9.28-16.84,16.4-27.89,21.16
				c-0.02,0.01-0.05,0.02-0.07,0.03c-2.8,1.18-5.51,2.17-8.17,3c-0.15,0.05-0.29,0.09-0.44,0.13c-5.69,1.73-11.62,2.88-17.66,3.43
				c-0.03,0-0.06,0.01-0.09,0.01c-9.85,0.82-18.89-0.1-27.81-0.96h0v0l-24.88-4.19l-0.08-0.01
				C227.35,254.66,226.73,254.56,226.12,254.45z"/>
			<path class="st2" d="M252.93,258.98c-8.71-1.12-16.84-2.77-24.88-4.19L252.93,258.98L252.93,258.98z"/>
			<path class="st2" d="M235.59,131.74c-2.5,0.45-4.48,0.71-7.56,0.47v-0.14C230.03,132.14,232.84,132.08,235.59,131.74z"/>
			<path class="st2" d="M228.03,132.07v0.14c-0.02,0-0.04,0-0.06-0.01L228.03,132.07z"/>
			<path class="st2" d="M227.73,132.67c-0.05,0.1-0.1,0.21-0.15,0.31l0.02-0.06L227.73,132.67z"/>
			<path class="st2" d="M227.96,254.78l-2.1-0.35l-0.06-0.01c-0.04-0.01-0.06-0.02-0.08-0.02c0.13,0.02,0.26,0.04,0.39,0.06
				C226.73,254.56,227.35,254.66,227.96,254.78z"/>
			<path class="st2" d="M252.93,258.98c-14.65-1.41-25.66-4.19-27.06-4.55l2.1,0.35l0.08,0.01
				C236.09,256.21,244.21,257.86,252.93,258.98z"/>
			<path class="st3" d="M225.86,136.9c-0.73,1.86-1.28,3.61-1.68,5.27l-0.44,1.41C224.18,141.5,224.88,139.28,225.86,136.9z"/>
			<path class="st2" d="M223.74,143.57l0.44-1.41c-0.22,0.9-0.39,1.78-0.51,2.63c-0.07,0.03-0.13,0.05-0.18,0.07
				C223.56,144.44,223.64,144.01,223.74,143.57C223.74,143.58,223.74,143.57,223.74,143.57z"/>
			<path class="st2" d="M223.32,144.92l0.42-1.34c-0.09,0.43-0.18,0.86-0.25,1.28C223.38,144.9,223.32,144.92,223.32,144.92z"/>
			<path class="st3" d="M223.67,144.79c-4.57,30.93,49.79,26.01,54,25.58c-4.26,0.47-59.53,5.99-54.18-25.51
				C223.53,144.85,223.59,144.82,223.67,144.79z"/>
			<path class="st0" d="M217.55,127.48l-0.26,0.01c0.02-0.01,0.03-0.03,0.04-0.04c0.04-0.04,0.07-0.07,0.08-0.11
				C217.46,127.4,217.51,127.44,217.55,127.48z"/>
			<path class="st3" d="M217.3,127.5l0.26-0.01c2.78,2.71,6.24,4.28,10.41,4.71l-0.24,0.47l-0.13,0.26l-0.02,0.06
				c-0.65,1.33-1.21,2.61-1.69,3.84c-0.01,0.03-0.02,0.05-0.03,0.07c-0.98,2.39-1.68,4.61-2.12,6.68c0,0,0,0,0,0.01l-0.42,1.34
				c0,0,0.06-0.02,0.17-0.06c-5.35,31.51,49.92,25.99,54.18,25.51c0.04,0,0.08-0.01,0.11-0.01c0.09-0.01,0.15-0.02,0.15-0.02
				l7.55-46.45c0.01,0,0.03,0.01,0.05,0.01c0.33,0.07,0.86,0.15,1.57,0.25c4.27,0.72,16.16,3.02,25.34,7.48
				c10.51,5.12,18.69,13.85,19.89,15.17c0.02,0.02,0.03,0.04,0.05,0.06c0.04,0.03,0.07,0.07,0.1,0.11
				c5.84,6.97,10.69,16.11,13.35,28.1c0,0,5.13,51.13-38.94,72.8c-1.66-15.02-12.32-29.03-26.42-32.91
				c-20.06,15.66-57.33,19.25-89.6,19.83c0-41.17-27.41-43.1-27.41-43.1c0.32-1.26,0.63-2.57,0.94-3.9c0.78-3.4,1.7-6.6,2.73-9.63
				c0.21-0.64,0.43-1.27,0.66-1.89c0.11-0.31,0.23-0.62,0.34-0.93c0.11-0.31,0.23-0.61,0.35-0.91c0.12-0.3,0.24-0.6,0.36-0.9
				c0.24-0.61,0.49-1.22,0.75-1.81c0.24-0.57,0.49-1.13,0.74-1.68c0.26-0.57,0.52-1.13,0.78-1.68c0.13-0.27,0.27-0.55,0.4-0.82
				c0.13-0.27,0.27-0.54,0.4-0.81c0.17-0.33,0.34-0.67,0.51-1c0.52-0.99,1.05-1.96,1.59-2.9c0.01-0.02,0.02-0.04,0.03-0.06
				c0.28-0.48,0.55-0.94,0.83-1.41c0.04-0.08,0.09-0.15,0.14-0.23c0.4-0.66,0.81-1.31,1.22-1.94c0.46-0.7,0.92-1.38,1.38-2.05
				c0.31-0.45,0.62-0.89,0.94-1.32c0.32-0.44,0.63-0.86,0.95-1.28c0.16-0.21,0.32-0.42,0.48-0.63c0.32-0.41,0.64-0.82,0.97-1.22
				c0.16-0.2,0.33-0.4,0.49-0.6c0.49-0.59,0.98-1.17,1.48-1.74c0.16-0.18,0.33-0.37,0.5-0.56c0.33-0.37,0.66-0.74,1-1.09
				c0.16-0.18,0.33-0.36,0.5-0.53c0.08-0.09,0.16-0.18,0.24-0.26c0.14-0.15,0.28-0.3,0.43-0.44c1.71-1.75,3.43-3.35,5.15-4.81
				c0.15-0.12,0.29-0.25,0.44-0.37c0.27-0.23,0.55-0.46,0.83-0.68c0.17-0.14,0.34-0.27,0.51-0.41c3.2-2.56,6.35-4.64,9.26-6.35
				c0.15-0.09,0.31-0.18,0.46-0.27c0.75-0.44,1.49-0.84,2.21-1.23c0.11-0.06,0.22-0.12,0.33-0.18c0.09-0.05,0.18-0.09,0.27-0.14
				c0.12-0.06,0.23-0.12,0.34-0.18c0.84-0.44,1.65-0.84,2.43-1.21c0.24-0.12,0.47-0.23,0.7-0.33c1.31-0.62,2.52-1.14,3.59-1.59
				c0.19-0.08,0.39-0.16,0.57-0.24c0.2-0.08,0.39-0.16,0.58-0.24c0.02-0.01,0.04-0.02,0.06-0.02c0.1-0.04,0.21-0.09,0.3-0.12
				c0.52-0.21,0.99-0.4,1.41-0.57c0.22-0.09,0.43-0.18,0.62-0.26c0.26-0.1,0.49-0.2,0.7-0.29c0.09-0.04,0.16-0.07,0.24-0.11
				c0.06-0.03,0.12-0.06,0.17-0.08c0.08-0.04,0.15-0.07,0.22-0.11l0,0c0.06-0.03,0.12-0.06,0.17-0.09
				C217.21,127.56,217.25,127.53,217.3,127.5L217.3,127.5z"/>
			<path class="st3" d="M158.81,251.94c1.87,0,4.06,0,6.45,0c2.15,0,4.46-0.01,6.83-0.01c0.08,0,0.15,0,0.24,0l28.53,0.02
				c0.01,0.26,0.04,1.82,0.04,3.11c0,1.95-1.55,3.03-3.5,3.03c-1.55,0-44.94,0-62.79,0c-4.64,0-7.56,0-7.56,0s-75.7-9.84-83.1-10.98
				c-1.06-0.16-1.79-0.51-2.28-0.93c-1.52-1.3-0.85-3.37-0.85-3.37l17,1.8l69.24,7.3c-0.03-0.1-0.06-0.2-0.09-0.31
				c-0.03-0.11-0.06-0.23-0.1-0.36c-0.03-0.12-0.07-0.26-0.11-0.39c-0.04-0.14-0.08-0.28-0.12-0.44c-0.11-0.39-0.23-0.82-0.36-1.29
				c-0.13-0.47-0.27-0.98-0.43-1.53c-0.15-0.55-0.32-1.14-0.49-1.76c-0.16-0.57-0.33-1.17-0.51-1.8l22.98,2.38l1.01,0.57
				c-0.64,1.45-1.01,3.09-1.01,4.93v0l4.69,0c0,0.02,0,0.03,0,0.03S154.97,251.94,158.81,251.94z"/>
			<path class="st5" d="M200.85,251.94l-28.53-0.02c11.76-0.01,25.03-0.02,28.53-0.02C200.85,251.91,200.85,251.92,200.85,251.94z"
				/>
			<path class="st0" d="M180.94,152.7c-0.33,0.4-0.65,0.81-0.97,1.22C180.3,153.51,180.62,153.1,180.94,152.7z"/>
			<path class="st0" d="M179.49,154.55c-0.32,0.42-0.63,0.84-0.95,1.28C178.86,155.39,179.18,154.97,179.49,154.55z"/>
			<path class="st0" d="M177.61,157.15c-0.47,0.67-0.93,1.35-1.38,2.05C176.68,158.5,177.13,157.82,177.61,157.15z"/>
			<path class="st0" d="M176.22,159.2c-0.41,0.63-0.82,1.28-1.22,1.94C175.4,160.48,175.81,159.84,176.22,159.2z"/>
			<path class="st0" d="M174.86,161.37c-0.28,0.46-0.55,0.93-0.83,1.41C174.31,162.3,174.58,161.83,174.86,161.37z"/>
			<path class="st0" d="M174,162.83c-0.54,0.94-1.07,1.91-1.59,2.9C172.93,164.74,173.46,163.77,174,162.83z"/>
			<path class="st0" d="M171.9,166.73c-0.14,0.27-0.27,0.54-0.4,0.81C171.62,167.27,171.76,167,171.9,166.73z"/>
			<path class="st0" d="M171.5,167.54c-0.14,0.27-0.27,0.55-0.4,0.82C171.22,168.08,171.36,167.81,171.5,167.54z"/>
			<path class="st0" d="M171.09,168.36c-0.26,0.55-0.52,1.11-0.78,1.68C170.57,169.47,170.83,168.92,171.09,168.36z"/>
			<path class="st0" d="M170.31,170.04c-0.25,0.55-0.5,1.11-0.74,1.68C169.81,171.16,170.06,170.59,170.31,170.04z"/>
			<path class="st5" d="M172.09,251.93c-2.37,0-4.68,0-6.83,0.01c0,0,0-0.01,0-0.01L172.09,251.93z"/>
			<path class="st0" d="M168.12,175.35c-0.12,0.31-0.23,0.62-0.34,0.93C167.89,175.97,168,175.66,168.12,175.35z"/>
			<path class="st5" d="M165.26,251.94c-2.39,0-4.58,0-6.45,0c0-0.01,0-0.01,0-0.02l6.45,0
				C165.26,251.93,165.26,251.93,165.26,251.94z"/>
			<path class="st5" d="M158.81,251.92c0,0.01,0,0.01,0,0.02c-3.84,0-6.32,0-6.32,0s0-0.01,0-0.03L158.81,251.92z"/>
			<path class="st3" d="M127.04,251.91l-69.24-7.3l-17-1.8c-0.33-0.69-0.89-1.88-1.62-3.45c-0.74-1.57-1.66-3.53-2.71-5.75
				c-1.05-2.24-2.23-4.74-3.49-7.4c-1.26-2.67-2.6-5.51-3.95-8.37c-0.79-1.68-1.59-3.36-2.37-5.03c-0.79-1.68-1.58-3.34-2.34-4.96
				c-0.77-1.63-1.52-3.21-2.23-4.73c-0.72-1.52-1.41-2.97-2.04-4.33c-0.32-0.68-0.63-1.33-0.93-1.96c-0.3-0.63-0.58-1.23-0.85-1.79
				c-0.27-0.57-0.52-1.1-0.76-1.6c-0.24-0.5-0.46-0.96-0.66-1.39c-0.1-0.21-0.2-0.42-0.29-0.61c-0.09-0.19-0.18-0.38-0.26-0.55
				c-0.08-0.17-0.16-0.33-0.23-0.48c-0.07-0.15-0.14-0.29-0.2-0.42c-0.03-0.06-0.06-0.12-0.09-0.18c-0.03-0.06-0.05-0.11-0.08-0.16
				c-0.03-0.05-0.05-0.1-0.07-0.15c-0.02-0.04-0.04-0.09-0.06-0.13c-0.02-0.04-0.04-0.08-0.06-0.11c-0.02-0.03-0.03-0.06-0.04-0.09
				c-0.02-0.03-0.03-0.06-0.04-0.08c-0.01-0.02-0.02-0.04-0.03-0.06c-0.09-0.2-0.16-0.37-0.21-0.53c-0.06-0.15-0.09-0.29-0.12-0.41
				c-0.03-0.12-0.04-0.23-0.04-0.33c0-0.09,0.01-0.18,0.03-0.27c0.02-0.08,0.05-0.15,0.09-0.22c0.04-0.07,0.09-0.13,0.15-0.18
				c0.06-0.06,0.14-0.1,0.23-0.14c0.09-0.04,0.18-0.06,0.3-0.08c0.26-0.03,3.69-0.47,9.07-1.14c5.63-0.71,13.57-1.72,22.45-2.84
				c9.53-1.2,20.25-2.56,30.1-3.8c10.56-1.33,19.91-2.51,25.07-3.17c0.13-0.02,0.25-0.03,0.37-0.03c0.12,0,0.24,0,0.35,0.02
				c0.12,0.01,0.22,0.03,0.33,0.05c0.11,0.02,0.21,0.05,0.31,0.08c0.15,0.05,0.3,0.11,0.43,0.18c0.14,0.07,0.27,0.15,0.4,0.24
				c0.13,0.09,0.25,0.19,0.37,0.3s0.24,0.23,0.35,0.36c0.11,0.13,0.22,0.27,0.32,0.42c0.1,0.15,0.2,0.3,0.29,0.47
				s0.17,0.33,0.24,0.51c0.08,0.18,0.14,0.36,0.2,0.54c0.01,0.05,0.03,0.11,0.06,0.2c0.03,0.09,0.06,0.19,0.09,0.32
				c0.04,0.12,0.08,0.27,0.12,0.42c0.05,0.16,0.1,0.33,0.15,0.53c0.42,1.43,1.08,3.75,1.92,6.7c0.83,2.92,1.83,6.45,2.93,10.33
				c1.08,3.83,2.26,8,3.46,12.27c1.18,4.21,2.4,8.5,3.56,12.66c0.58,2.06,1.15,4.09,1.71,6.06c0.55,1.96,1.08,3.86,1.59,5.67
				c0.51,1.81,0.99,3.53,1.45,5.15c0.45,1.61,0.87,3.11,1.26,4.49c0.01,0.06,0.03,0.11,0.04,0.16c0.18,0.63,0.35,1.23,0.51,1.8
				c0.18,0.62,0.34,1.21,0.49,1.76c0.15,0.55,0.3,1.06,0.43,1.53c0.13,0.47,0.25,0.9,0.36,1.29c0.04,0.15,0.08,0.3,0.12,0.44
				c0.04,0.14,0.08,0.27,0.11,0.39c0.03,0.12,0.07,0.24,0.1,0.36C126.99,251.7,127.01,251.81,127.04,251.91z M70.99,221.74
				c0.25-0.56,0.37-1.24,0.35-1.99c-0.03-0.76-0.2-1.59-0.54-2.47c-0.34-0.88-0.81-1.73-1.37-2.49c-0.57-0.77-1.21-1.46-1.91-2.03
				c-0.69-0.57-1.44-1.03-2.18-1.35s-1.48-0.48-2.19-0.46c-0.7,0.02-1.29,0.21-1.76,0.54c-0.47,0.33-0.83,0.81-1.05,1.38
				c-0.22,0.57-0.32,1.25-0.27,2c0.05,0.74,0.24,1.56,0.57,2.41c0.34,0.85,0.8,1.66,1.34,2.39c0.54,0.74,1.16,1.4,1.83,1.96
				c0.66,0.56,1.38,1.02,2.1,1.34c0.72,0.33,1.45,0.51,2.15,0.53c0.7,0.02,1.3-0.14,1.8-0.45C70.36,222.75,70.74,222.3,70.99,221.74
				z"/>
			<path class="st2" d="M127.04,258.85c-73.13,0-145.89-5.87-112-10c11.59-1.41,20.24-2.22,26.61-2.68c0.5,0.42,1.23,0.77,2.28,0.93
				c7.4,1.14,83.1,10.98,83.1,10.98s2.92,0,7.56,0C134.63,258.57,132.37,258.85,127.04,258.85z"/>
		</g>
		<g>
			<path class="st6" d="M41.66,246.18c-6.37,0.45-15.02,1.26-26.61,2.68c-33.89,4.13,38.87,10,112,10c5.33,0,7.58-0.28,7.56-0.77"/>
			<path class="st7" d="M217.42,127.35c-0.01,0.03-0.04,0.07-0.08,0.11c-0.01,0.01-0.03,0.03-0.04,0.04h0
				c-0.04,0.03-0.09,0.06-0.14,0.1c-0.05,0.03-0.11,0.06-0.17,0.09l0,0c-0.07,0.04-0.14,0.07-0.22,0.11
				c-0.06,0.03-0.11,0.06-0.17,0.08c-0.08,0.03-0.15,0.07-0.24,0.11c-0.21,0.09-0.44,0.19-0.7,0.29c-0.19,0.08-0.4,0.17-0.62,0.26
				c-0.42,0.17-0.89,0.36-1.41,0.57c-0.1,0.04-0.2,0.08-0.3,0.12c-0.02,0-0.03,0.01-0.06,0.02c-0.19,0.08-0.38,0.16-0.58,0.24
				c-0.18,0.08-0.38,0.16-0.57,0.24c-1.07,0.45-2.28,0.98-3.59,1.59c-0.23,0.11-0.46,0.22-0.7,0.33c-0.78,0.37-1.59,0.78-2.43,1.21
				c-0.12,0.06-0.23,0.12-0.34,0.18c-0.09,0.05-0.18,0.09-0.27,0.14c-0.11,0.06-0.22,0.12-0.33,0.18c-0.72,0.39-1.46,0.79-2.21,1.23
				c-0.15,0.09-0.3,0.18-0.46,0.27c-2.92,1.71-6.06,3.8-9.26,6.35c-0.17,0.13-0.33,0.27-0.51,0.41c-0.28,0.22-0.55,0.45-0.83,0.68
				c-0.15,0.12-0.29,0.24-0.44,0.37c-1.72,1.46-3.45,3.05-5.15,4.81c-0.15,0.15-0.29,0.29-0.43,0.44c-0.08,0.08-0.17,0.17-0.24,0.26
				c-0.17,0.18-0.34,0.35-0.5,0.53c-0.34,0.36-0.67,0.72-1,1.09c-0.17,0.18-0.33,0.37-0.5,0.56c-0.5,0.57-0.99,1.14-1.48,1.74
				c-0.16,0.2-0.33,0.39-0.49,0.6c-0.33,0.4-0.65,0.81-0.97,1.22c-0.16,0.21-0.32,0.42-0.48,0.63c-0.32,0.42-0.64,0.84-0.95,1.28
				c-0.32,0.43-0.63,0.87-0.94,1.32c-0.47,0.67-0.93,1.35-1.38,2.05c-0.42,0.63-0.82,1.28-1.22,1.94c-0.05,0.08-0.09,0.15-0.14,0.23
				c-0.28,0.46-0.56,0.93-0.83,1.41c-0.01,0.02-0.02,0.04-0.03,0.06c-0.54,0.94-1.08,1.91-1.59,2.9c-0.18,0.33-0.35,0.66-0.51,1
				c-0.14,0.27-0.27,0.54-0.4,0.81c-0.14,0.27-0.27,0.54-0.4,0.82c-0.27,0.55-0.53,1.11-0.78,1.68c-0.25,0.55-0.5,1.11-0.74,1.68
				c-0.26,0.6-0.51,1.2-0.75,1.81c-0.12,0.3-0.24,0.6-0.36,0.9c-0.12,0.3-0.24,0.6-0.35,0.91c-0.12,0.3-0.23,0.61-0.34,0.93
				c-0.23,0.62-0.45,1.25-0.66,1.89c-1.03,3.02-1.95,6.23-2.73,9.63c-0.31,1.34-0.62,2.64-0.94,3.9
				c-8.79,35.16-20.56,42.53-41.37,42.53"/>
			<line class="st7" x1="124.83" y1="244.03" x2="147.81" y2="246.41"/>
			<path class="st7" d="M200.85,251.91c0,0,0,0.01,0,0.04c0.01,0.26,0.04,1.82,0.04,3.11c0,1.95-1.55,3.03-3.5,3.03
				c-1.55,0-44.94,0-62.79,0c-4.64,0-7.56,0-7.56,0s-75.7-9.84-83.1-10.98c-1.06-0.16-1.79-0.51-2.28-0.93
				c-1.52-1.3-0.85-3.37-0.85-3.37"/>
			<path class="st7" d="M40.81,242.8c-0.33-0.69-0.89-1.88-1.62-3.45c-0.74-1.57-1.66-3.53-2.71-5.75c-1.05-2.24-2.23-4.74-3.49-7.4
				c-1.26-2.67-2.6-5.51-3.95-8.37c-0.79-1.68-1.59-3.36-2.37-5.03c-0.79-1.68-1.58-3.34-2.34-4.96c-0.77-1.63-1.52-3.21-2.23-4.73
				c-0.72-1.52-1.41-2.97-2.04-4.33c-0.32-0.68-0.63-1.33-0.93-1.96c-0.3-0.63-0.58-1.23-0.85-1.79c-0.27-0.57-0.52-1.1-0.76-1.6
				c-0.24-0.5-0.46-0.96-0.66-1.39c-0.1-0.21-0.2-0.42-0.29-0.61c-0.09-0.19-0.18-0.38-0.26-0.55c-0.08-0.17-0.16-0.33-0.23-0.48
				c-0.07-0.15-0.14-0.29-0.2-0.42c-0.03-0.06-0.06-0.12-0.09-0.18c-0.03-0.06-0.05-0.11-0.08-0.16c-0.03-0.05-0.05-0.1-0.07-0.15
				c-0.02-0.04-0.04-0.09-0.06-0.13c-0.02-0.04-0.04-0.08-0.06-0.11c-0.02-0.03-0.03-0.06-0.04-0.09c-0.02-0.03-0.03-0.06-0.04-0.08
				c-0.01-0.02-0.02-0.04-0.03-0.06c-0.09-0.2-0.16-0.37-0.21-0.53c-0.06-0.15-0.09-0.29-0.12-0.41c-0.03-0.12-0.04-0.23-0.04-0.33
				c0-0.09,0.01-0.18,0.03-0.27c0.02-0.08,0.05-0.15,0.09-0.22c0.04-0.07,0.09-0.13,0.15-0.18c0.06-0.06,0.14-0.1,0.23-0.14
				c0.09-0.04,0.18-0.06,0.3-0.08c0.26-0.03,3.69-0.47,9.07-1.14c5.63-0.71,13.57-1.72,22.45-2.84c9.53-1.2,20.25-2.56,30.1-3.8
				c10.56-1.33,19.91-2.51,25.07-3.17c0.13-0.02,0.25-0.03,0.37-0.03c0.12,0,0.24,0,0.35,0.02c0.12,0.01,0.22,0.03,0.33,0.05
				c0.11,0.02,0.21,0.05,0.31,0.08c0.15,0.05,0.3,0.11,0.43,0.18c0.14,0.07,0.27,0.15,0.4,0.24c0.13,0.09,0.25,0.19,0.37,0.3
				s0.24,0.23,0.35,0.36c0.11,0.13,0.22,0.27,0.32,0.42c0.1,0.15,0.2,0.3,0.29,0.47s0.17,0.33,0.24,0.51
				c0.08,0.18,0.14,0.36,0.2,0.54c0.01,0.05,0.03,0.11,0.06,0.2c0.03,0.09,0.06,0.19,0.09,0.32c0.04,0.12,0.08,0.27,0.12,0.42
				c0.05,0.16,0.1,0.33,0.15,0.53c0.42,1.43,1.08,3.75,1.92,6.7c0.83,2.92,1.83,6.45,2.93,10.33c1.08,3.83,2.26,8,3.46,12.27
				c1.18,4.21,2.4,8.5,3.56,12.66c0.58,2.06,1.15,4.09,1.71,6.06c0.55,1.96,1.08,3.86,1.59,5.67c0.51,1.81,0.99,3.53,1.45,5.15
				c0.45,1.61,0.87,3.11,1.26,4.49c0.01,0.06,0.03,0.11,0.04,0.16c0.18,0.63,0.35,1.23,0.51,1.8c0.18,0.62,0.34,1.21,0.49,1.76
				c0.15,0.55,0.3,1.06,0.43,1.53c0.13,0.47,0.25,0.9,0.36,1.29c0.04,0.15,0.08,0.3,0.12,0.44c0.04,0.14,0.08,0.27,0.11,0.39
				c0.03,0.12,0.07,0.24,0.1,0.36c0.03,0.11,0.06,0.21,0.09,0.31l-69.24-7.3L40.81,242.8z"/>
			<polyline class="st7" points="172.33,251.93 200.85,251.94 200.9,251.94 			"/>
			<polyline class="st7" points="145.33,251.91 147.81,251.91 152.49,251.91 158.81,251.92 165.26,251.92 172.09,251.93 			"/>
			<path class="st7" d="M171.2,235.55c0,0-0.01,0-0.03,0c-0.82,0.06-17.99,1.5-22.36,11.43c-0.64,1.45-1.01,3.09-1.01,4.93"/>
			<path class="st7" d="M227.96,254.78c-0.62-0.11-1.23-0.22-1.85-0.33c-8.28-1.42-16.52-2.54-25.27-2.54
				c-3.49,0-16.77,0.01-28.53,0.02c-0.08,0-0.16,0-0.24,0c-2.37,0-4.68,0-6.83,0.01c-2.39,0-4.58,0-6.45,0c-3.84,0-6.32,0-6.32,0
				s0-0.01,0-0.03c0.02-0.71,0.62-13.32,18.68-16.36c2.49-0.42,5.31-0.66,8.5-0.66c3.63,0,7.37-0.03,11.18-0.1
				c32.27-0.58,69.55-4.17,89.6-19.83c5.06-3.96,9.03-8.68,11.54-14.33"/>
			<path class="st7" d="M307.11,253.36c-2.65,1.14-5.38,2.14-8.17,3c-0.15,0.05-0.29,0.09-0.44,0.13
				c-5.69,1.73-11.62,2.88-17.66,3.43c-0.03,0-0.06,0.01-0.09,0.01c-2.72,0.24-5.45,0.37-8.2,0.37c-6.96,0-13.43-0.53-19.61-1.32h0
				c-8.71-1.12-16.84-2.77-24.88-4.19"/>
			<path class="st7" d="M335.07,232.17c-7.15,9.28-16.84,16.4-27.89,21.16"/>
			<path class="st7" d="M285.48,123.9c0.01,0,0.03,0.01,0.05,0.01c0.33,0.07,0.86,0.15,1.57,0.25c6.77,0.96,29.54,4.07,45.23,22.66
				c0.02,0.02,0.03,0.04,0.05,0.06c0.04,0.03,0.07,0.07,0.1,0.11c5.84,6.97,10.69,16.11,13.35,28.1c2.07,9.33,2.53,17.99,1.65,25.92
				c-1.33,12.13-5.78,22.57-12.4,31.17"/>
			<path class="st7" d="M255.74,125.35c-0.12,0.05-0.25,0.09-0.37,0.14c-3.41,1.29-6.76,2.5-9.86,3.61
				c-0.49,0.17-0.98,0.34-1.46,0.51c-1.56,0.55-3.06,1.02-4.52,1.4c-1.53,0.27-2.8,0.52-3.95,0.73c-2.5,0.45-4.48,0.71-7.56,0.47
				c-0.02,0-0.04,0-0.06-0.01c-4.17-0.43-7.63-2-10.41-4.71c-0.04-0.04-0.09-0.09-0.13-0.13c-8.82-8.76-10.75-29.13-6.92-61.1
				c0.26-2.19,0.55-4.43,0.87-6.72c0.58-4.25,1.41-8.15,2.45-11.73"/>
			<path class="st7" d="M298.94,74.87c0.64-1.29,1.6-3.94,2.04-5.19c0.02-0.06,0.03-0.1,0.05-0.15c0.03-0.09,0.06-0.18,0.09-0.25
				c0.06-0.18,0.09-0.28,0.09-0.28c8.5-21.42-10.03-29.59-10.03-29.59c10.06-25.75-33.12-46.94-63.72-27.37
				c-16.41,10.49-21.09,29.35-21.09,29.35s2.12,2.86,7.46,6.41c8.72,5.79,26.04,13.4,56.78,13.4c0,17.4,14.29,17.83,14.29,17.83
				l-5.21,13.21l7.18,3.48c0,0,0,0,0,0c0.09-0.17,2.02-3.67,4.3-8.68c0.01-0.02,0.02-0.04,0.03-0.06c1.27-2.81,2.66-6.1,3.88-9.53
				c0.04-0.12,0.09-0.24,0.14-0.36c0.48-1.13,1.21-1.77,2.04-2c0.52-0.15,1.08-0.14,1.64,0c1.86,0.46,3.82,2.37,4.75,4.93
				c3.43,7.71-3.62,20.35-12.28,19.12c-0.59-0.08-1.18-0.24-1.78-0.48l-0.17,1.06l-0.93,5.72l-3,18.46l-7.55,46.45
				c0,0-0.05,0-0.15,0.02c-0.03,0-0.07,0.01-0.11,0.01c-4.26,0.47-59.53,5.99-54.18-25.51c0.07-0.42,0.15-0.85,0.25-1.28
				c0,0,0-0.01,0-0.01c0.45-2.07,1.14-4.29,2.12-6.68c0.01-0.03,0.02-0.05,0.03-0.07c0.39-0.95,0.83-1.93,1.31-2.93
				c0.18-0.37,0.36-0.74,0.55-1.11"/>
			<path class="st7" d="M163.44,191.7c0,0,27.41,1.92,27.41,43.1"/>
			<path class="st7" d="M306.88,247.88c-1.66-15.02-12.32-29.03-26.42-32.91c-2.54-0.7-5.19-1.07-7.92-1.06"/>
			<path class="st7" d="M171.2,245.74c-0.15,0-5.92,1.2-5.95,6.18c0,0,0,0.01,0,0.01c0,0.01,0,0.02,0,0.03"/>
			<path class="st7" d="M166.28,241.53c0,0-7.44,3.05-7.47,10.39c0,0.01,0,0.01,0,0.02c0,0.01,0,0.01,0,0.02"/>
			<polyline class="st7" points="225.67,254.39 225.81,254.41 225.87,254.42 227.96,254.78 228.05,254.79 252.93,258.97 			"/>
		</g>
	</g>
</g>
</svg>
