<?xml version="1.0" encoding="utf-8"?>
<!-- Generator: Adobe Illustrator 27.0.0, SVG Export Plug-In . SVG Version: 6.00 Build 0)  -->
<svg version="1.1" id="Capa_1" xmlns="http://www.w3.org/2000/svg" xmlns:xlink="http://www.w3.org/1999/xlink" x="0px" y="0px"
	 viewBox="0 0 557.9 363.3" style="enable-background:new 0 0 557.9 363.3;" xml:space="preserve">
<style type="text/css">
	.st0{display:none;}
	.st1{fill:#ACCFD8;}
	.st2{fill:#FDF9F3;stroke:#35353B;stroke-width:1.5;stroke-linecap:round;stroke-linejoin:round;stroke-miterlimit:10;}
	.st3{fill:#35353B;}
	.st4{fill:#FBD283;}
	.st5{fill:#EF938C;}
	.st6{fill:none;stroke:#35353B;stroke-width:1.5;stroke-linecap:round;stroke-linejoin:round;stroke-miterlimit:10;}
	.st7{fill:#C57DA1;}
	.st8{fill:none;stroke:#35353B;stroke-linecap:round;stroke-linejoin:round;stroke-miterlimit:10;}
	.st9{fill:#35353B;stroke:#35353B;stroke-linecap:round;stroke-linejoin:round;stroke-miterlimit:10;}
</style>
<g id="Capa_2_00000045587590735359741330000001594874248518742429_" class="st0">
	
		<image style="display:inline;overflow:visible;enable-background:new    ;" width="1000" height="750" xlink:href="Hands with berries.png"  transform="matrix(0.635 0 0 0.635 -41.2558 -79.6755)">
	</image>
</g>
<g id="Capa_1_00000057126842577987867030000002522399758876822417_">
	<polygon class="st1" points="437.1,94.1 392.3,189.9 413.5,293.5 308.6,280.5 216.6,332.7 196.5,228.9 118.5,157.6 211,106.4 
		254.7,10.1 332,82.3 	"/>
	<path class="st2" d="M274.6,251.7c-33.3-28.2-33.6-40.7-31.3-45.7c5.5-11.8,30,25.6,65.4,25.8"/>
	<path class="st2" d="M273.2,265.4c0,0-38.1-9.1-54.6-44.3c-11.8-25.2,8.9-12.6,26.3,3.3c15.8,14.4,57.3,20.2,78.5,19.9"/>
	<ellipse class="st3" cx="533.2" cy="260.5" rx="17.4" ry="98"/>
	<g>
		<path class="st2" d="M550,260.5c0-19.6-1.1-38.1-2.9-53.6c-63.5-8.7-187.3-41.2-219.4,5.2c-32.7,47.3-26.4,48.5-48.8,51.6
			s-38.9,3.1-47.5,5.1c-8.6,2-18.6,12.1-2,14.1c0,0,86.3,10.6,100,11.4s35.3,2,56.5-17.7c21.2-19.6,30.2-33,59.6-14.5
			c25.1,15.7,82.9,56.4,99.2,68C548,312.4,550,287.5,550,260.5z"/>
	</g>
	<g>
		<g>
			<path class="st4" d="M334.8,284.9c-0.2,0-0.4-0.1-0.5-0.2l-163.8-149c-0.2-0.2-0.3-0.6-0.2-0.8l4-9.5c0-0.1,0.1-0.2,0.2-0.3
				l83.4-75.9c1-0.9,2.3-1.4,3.7-1.4c1.3,0,2.6,0.5,3.6,1.4l144.8,128.6c2.1,1.8,2.4,4.9,0.8,7.2l-65.9,94.4
				c-0.1,0.1-0.2,0.2-0.3,0.2l-9.5,5.3C335,284.8,334.9,284.9,334.8,284.9z"/>
			<path class="st3" d="M261.6,48.4c1.1,0,2.2,0.4,3.1,1.2l144.8,128.6c1.8,1.6,2.1,4.2,0.7,6.2l-65.9,94.4l-9.5,5.3L171,135.1
				l4-9.5l83.4-75.9C259.3,48.8,260.4,48.4,261.6,48.4 M261.6,46.9c-1.5,0-3,0.6-4.2,1.6L174,124.5c-0.2,0.1-0.3,0.3-0.4,0.5l-4,9.5
				c-0.2,0.6-0.1,1.3,0.4,1.7l163.8,149c0.3,0.3,0.6,0.4,1,0.4c0.2,0,0.5-0.1,0.7-0.2l9.5-5.3c0.2-0.1,0.4-0.3,0.5-0.5l65.9-94.4
				c1.8-2.6,1.4-6.1-1-8.2L265.7,48.5C264.5,47.5,263.1,46.9,261.6,46.9L261.6,46.9z"/>
		</g>
	</g>
	<path class="st2" d="M191.9,59.3c0,0,5.1,2,14.6-0.2c9.5-2.2,23.4-8.5,23.4-8.5l-4.1-13.8L191.9,59.3z"/>
	<polygon class="st5" points="171,135.1 175,125.6 201.3,101.6 239.7,132.3 211,158.4 344.3,278.8 334.8,284.1 	"/>
	<path class="st2" d="M205.1,26C255.8,11,272.4,5.6,280.4,3.4c8-2.2,15.8,0.8,6,8.4s-26.5,15.8-26.5,15.8L205.1,26z"/>
	<ellipse class="st3" cx="23.3" cy="138.1" rx="17.4" ry="98"/>
	<path class="st2" d="M312.5,25.5c-6.4,4.7-52.6,12.3-65.1,11.1S205.1,13,205.1,13s97.1,3.8,103.6,4.8
		C315.3,18.8,316.3,22.8,312.5,25.5z"/>
	<g>
		<path class="st2" d="M258.7,98.5c-1-14-9-64-15.1-71c-6.1-7-15.9-15-58.9-21s-53-3-69.2,5c-14.5,7.2-89.3,54-104.9,63.8
			C8,92.4,6.4,114.5,6.4,138.1c0,38.2,4,72.2,9.7,88C34.7,215,87.6,137.4,127.6,80.5c22.6,18.7,46.6,25.7,65.6,27.7
			c12-10.9,16-14.5,16-14.5c-10-11-15.9-13.7-19-20.2c-5.5-11.7,6.1-13.9,9.3-14.8c15.3-4.5,23.1-14.2,23.1-14.2s4,11,9.6,23
			c3.4,7.2,11.3,22.9,17.5,32.1C253.4,105.1,259.1,104.1,258.7,98.5z"/>
	</g>
	<line class="st6" x1="344.3" y1="278.8" x2="163.3" y2="115.2"/>
	<path class="st4" d="M175,125.6"/>
	<g>
		<g>
			<g>
				<polygon class="st7" points="239.4,151.2 242.8,147.4 275,177.8 271.6,181.6 				"/>
			</g>
			<g>
				<polygon class="st7" points="233.9,157.2 237.3,153.5 269.5,183.9 266.1,187.6 				"/>
			</g>
			<g>
				<polygon class="st7" points="244.9,145.1 248.4,141.3 280.6,171.7 277.1,175.5 				"/>
			</g>
			<g>
				<polygon class="st7" points="250.5,139 253.9,135.3 286.1,165.7 282.7,169.4 				"/>
			</g>
			<polygon class="st7" points="295,92.1 293.8,91 281.7,104.3 297.9,143.1 258.1,130.7 256.5,135.5 300.8,149.6 302.2,148 
				285,107.4 313,133.8 309.9,137.1 311.1,138.2 326.2,121.6 325.1,120.5 322,123.8 292,95.4 			"/>
		</g>
	</g>
	<path class="st2" d="M407.2,204.5c-24.6-4.7-42,10.7-71.6,32.3c-17.5,12.7-33.4,16.9-51.2,21.6c-17.8,4.6-9.9,20.8,10.3,22.4
		c8.5,0.7,43,0,82.7-12.9"/>
	<path class="st8" d="M275,258.1"/>
	<line class="st6" x1="14.9" y1="72.6" x2="2" y2="80"/>
	<path class="st6" d="M415.1,188.2c0,0-9-1.6-18.8,1.2"/>
	<path class="st9" d="M421.7,253.5c36.1-12.2,126.8,47.5,126.8,47.5l-3.6,29.3C544.9,330.2,431.8,246,421.7,253.5z"/>
	<path class="st3" d="M397.8,203.4c0,0,10.2-16.3,28.3-14.5c0,0-12.6-0.9-17.6-1.2L397.8,203.4z"/>
	<path class="st3" d="M334.8,284.1c0,0,31.7-0.2,39.1-15.3l-27.5,7l-2.1,3L334.8,284.1z"/>
	<path class="st3" d="M152.3,3.4c0,0-23.3-6.2-85.3,48S6.4,114.7,6.4,114.7l4.1-39.3c0,0,26.8-16.6,57.8-36.1
		C95.8,21.8,125.6,0,152.3,3.4z"/>
</g>
</svg>
