<?xml version="1.0" encoding="utf-8"?>
<!-- Generator: Adobe Illustrator 27.0.0, SVG Export Plug-In . SVG Version: 6.00 Build 0)  -->
<svg version="1.1" id="Capa_1" xmlns="http://www.w3.org/2000/svg" xmlns:xlink="http://www.w3.org/1999/xlink" x="0px" y="0px"
	 viewBox="0 0 257 159" style="enable-background:new 0 0 257 159;" xml:space="preserve">
<style type="text/css">
	.st0{fill:#36363C;}
</style>
<g>
	<g>
		<rect x="11.72" y="4.73" class="st0" width="4.8" height="47.05"/>
	</g>
	<g>
		<rect x="4" y="4.73" class="st0" width="4.8" height="47.05"/>
	</g>
	<g>
		<rect x="19.44" y="4.73" class="st0" width="4.8" height="47.05"/>
	</g>
	<g>
		<rect x="27.17" y="4.73" class="st0" width="4.8" height="47.05"/>
	</g>
	<polygon class="st0" points="88.04,6.12 88.04,4.43 71.14,4.43 55.04,44.91 37.77,4.73 33.49,6.94 52.46,51.79 54.41,51.79 
		71.14,9.24 71.14,50.06 66.91,50.06 66.91,51.75 88.04,51.75 88.04,50.06 83.81,50.06 83.81,6.12 	"/>
	<path class="st0" d="M103.52,68.18c-1.69,1.44-3.94,2.15-6.76,2.15c-2.82,0-5.01-0.61-6.59-1.82c-1.58-1.21-2.37-2.82-2.37-4.82
		c0-2,0.58-3.59,1.73-4.77c1.15-1.18,2.55-1.77,4.18-1.77c1.63,0,3.01,0.31,4.14,0.93c1.13,0.62,1.91,1.3,2.37,2.03
		c1.24,1.97,2.41,2.96,3.51,2.96c1.1,0,2.07-0.96,2.92-2.87l3.55-8.37L90.42,14.57h-3.38v-1.69h22.73v1.69h-4.22l11.32,22.31
		l9.72-22.31h-6.76v-1.69h13.86v1.69h-5.07l-20.28,46.56C106.81,64.4,105.21,66.75,103.52,68.18z"/>
	<path class="st0" d="M82.49,106.85c-0.73-0.87-1.68-1.31-2.83-1.31c-1.16,0-2.34,0.48-3.55,1.44c-1.21,0.96-2.62,1.93-4.22,2.91
		c-1.61,0.99-3.54,1.48-5.79,1.48c-7.66,0-13.59-1.97-17.79-5.91c-4.2-3.94-6.3-10-6.3-18.17c0-17.07,7.97-25.6,23.91-25.6
		c2.87,0,5.82,0.7,8.83,2.11c3.01,1.41,4.86,2.11,5.53,2.11s1.24-0.35,1.69-1.06c0.45-0.7,0.68-1.39,0.68-2.07h1.61v17.15h-1.69
		c0-4.28-1.68-8.11-5.03-11.49c-3.35-3.38-7.22-5.07-11.62-5.07c-3.38,0-5.94,1.82-7.69,5.45c-1.75,3.63-2.62,9.63-2.62,18
		s0.89,14.27,2.66,17.7c1.77,3.44,4.38,5.15,7.82,5.15c5.41,0,8.11-4.82,8.11-14.45v-6.25h-5.32v-1.69h20.28v1.69H85.2v21.13h-1.61
		C83.59,108.81,83.22,107.73,82.49,106.85z"/>
	<path class="st0" d="M132.01,109.9c-1.58,0.42-3.41,0.63-5.49,0.63c-4.62,0-7.52-1.38-8.7-4.14c-2.82,2.93-7.13,4.39-12.93,4.39
		c-3.1,0-5.65-0.72-7.65-2.15c-2-1.44-3-3.56-3-6.38c0-3.77,1.46-6.69,4.39-8.75c2.93-2.06,8.06-3.51,15.38-4.35l3.38-0.42v-4.14
		c0-4.9-0.37-8.2-1.1-9.89c-0.73-1.69-2.18-2.54-4.35-2.54c-2.17,0-3.56,0.3-4.18,0.89c-0.62,0.59-0.84,1.27-0.68,2.03
		c0.17,0.76,0.45,1.76,0.84,3c0.39,1.24,0.59,2.23,0.59,2.96c0,1.75-0.61,3.23-1.82,4.44c-1.21,1.21-2.68,1.82-4.39,1.82
		c-1.72,0-3.2-0.6-4.44-1.82c-1.24-1.21-1.86-2.69-1.86-4.44c0-2.87,1.48-5.34,4.44-7.39c2.96-2.06,7.38-3.08,13.27-3.08
		c5.89,0,10.08,1.16,12.59,3.46c2.51,2.31,3.76,6.39,3.76,12.25v15.21c0,2.99,0.37,4.86,1.1,5.62c0.73,0.76,2.08,0.92,4.06,0.46
		v0.85C134.66,108.98,133.59,109.47,132.01,109.9z M108.35,105.5c1.3,1.16,2.8,1.73,4.52,1.73c1.72,0,3.22-0.84,4.52-2.53V90.33
		l-3.04,0.42c-2.59,0.34-4.69,1.32-6.3,2.96c-1.61,1.63-2.3,3.92-2.07,6.84C106.26,102.7,107.05,104.35,108.35,105.5z"/>
	<path class="st0" d="M208.39,108.42h4.22v1.69h-21.13v-1.69h4.23V84.76c0-4-0.59-6.84-1.77-8.53c-1.18-1.69-2.96-2.54-5.32-2.54
		c-1.35,0-2.76,0.39-4.22,1.18c-1.47,0.79-2.68,1.89-3.63,3.3c0.68,2.03,1.01,4.85,1.01,8.45v21.8H186v1.69h-21.97v-1.69h5.07V84.76
		c0-4-0.59-6.84-1.77-8.53c-1.18-1.69-2.96-2.54-5.32-2.54c-3.21,0-5.78,1.69-7.69,5.07v29.66h4.23v1.69h-21.13v-1.69h4.22V72.93
		h-4.22v-1.69h16.9v4.39c1.07-1.46,2.75-2.72,5.03-3.76c2.28-1.04,4.75-1.56,7.39-1.56c6.7,0,11.07,1.89,13.1,5.66
		c1.46-1.8,3.41-3.2,5.83-4.18c2.42-0.98,4.99-1.48,7.69-1.48c10.03,0,15.04,5.44,15.04,16.31V108.42z"/>
	<path class="st0" d="M253,93.21h-25.52c0.56,9.92,4.42,14.87,11.58,14.87c1.91,0,4.1-0.45,6.55-1.35c2.45-0.9,4.24-2.17,5.37-3.8
		l1.18,0.84c-1.24,2.09-3.35,3.8-6.34,5.15c-2.99,1.35-5.96,2.03-8.91,2.03c-2.96,0-5.62-0.3-7.99-0.89c-2.37-0.59-4.68-1.59-6.93-3
		c-2.25-1.41-4.01-3.52-5.28-6.34c-1.27-2.82-1.9-6.22-1.9-10.22c0-6.82,1.89-11.87,5.66-15.17c3.77-3.3,8.35-4.94,13.73-4.94
		c5.38,0,9.86,1.8,13.44,5.41C251.21,79.41,253,85.21,253,93.21z M227.4,91.52h13.77c0-5.18-0.55-9.72-1.65-13.6
		c-1.1-3.89-2.86-5.83-5.28-5.83c-2.42,0-4.17,1.87-5.24,5.62c-1.07,3.75-1.61,8.04-1.61,12.89V91.52z"/>
	<path class="st0" d="M57.05,137.67h1.69v16.06H19.02v-1.69h4.22V108.1h-4.22v-1.69h21.97v1.69h-5.07v43.94h8.45
		c1.91,0,3.51-0.14,4.77-0.42c1.27-0.28,2.58-0.87,3.93-1.77C55.72,148.09,57.05,144.04,57.05,137.67z"/>
	<path class="st0" d="M83.16,154.57c-5.35,0-10.2-1.75-14.53-5.24c-4.34-3.49-6.51-8.45-6.51-14.87c0-3.43,0.63-6.51,1.9-9.21
		c1.27-2.7,2.96-4.84,5.07-6.42c2.11-1.58,4.38-2.77,6.8-3.59c2.42-0.82,4.9-1.23,7.44-1.23s5.03,0.41,7.48,1.23
		c2.45,0.82,4.73,2.01,6.84,3.59c2.11,1.58,3.82,3.72,5.11,6.42c1.3,2.7,1.94,5.75,1.94,9.13c0,3.38-0.65,6.39-1.94,9.04
		c-1.3,2.65-3.01,4.76-5.15,6.34C93.33,152.97,88.51,154.57,83.16,154.57z M76.9,148.61c1.24,2.85,3.38,4.27,6.42,4.27
		c3.04,0,5.21-1.44,6.51-4.31c1.3-2.87,1.94-7.62,1.94-14.24c0-6.62-0.65-11.38-1.94-14.28c-1.3-2.9-3.46-4.35-6.51-4.35
		c-3.04,0-5.18,1.45-6.42,4.35c-1.24,2.9-1.86,7.68-1.86,14.32C75.05,141.02,75.67,145.77,76.9,148.61z"/>
	<path class="st0" d="M128.87,153.73h-21.13v-1.69h4.22v-35.49h-4.22v-1.69h16.9v10.06c0.51-2.76,1.42-5.01,2.75-6.76
		c1.32-1.75,2.79-2.9,4.39-3.46c1.61-0.56,3.15-0.85,4.65-0.85c1.49,0,2.93,0.27,4.31,0.8c1.38,0.54,2.41,1.61,3.08,3.21
		c0.68,1.61,0.7,3.21,0.08,4.82c-0.62,1.61-1.7,2.75-3.25,3.42c-1.55,0.68-2.97,0.76-4.27,0.25c-1.3-0.51-2.23-1.2-2.79-2.07
		c-0.56-0.87-0.96-1.7-1.18-2.49c-0.56-2.08-1.32-3.13-2.28-3.13c-1.07,0-2.25,1.85-3.55,5.54c-1.3,3.69-1.94,7.59-1.94,11.7v16.14
		h4.22V153.73z"/>
	<path class="st0" d="M184.94,136.83h-25.52c0.56,9.92,4.42,14.87,11.58,14.87c1.91,0,4.1-0.45,6.55-1.35
		c2.45-0.9,4.24-2.17,5.37-3.8l1.18,0.85c-1.24,2.08-3.35,3.8-6.34,5.15c-2.99,1.35-5.96,2.03-8.92,2.03c-2.96,0-5.62-0.3-7.99-0.89
		c-2.37-0.59-4.68-1.59-6.93-3c-2.25-1.41-4.01-3.52-5.28-6.34c-1.27-2.82-1.9-6.22-1.9-10.23c0-6.82,1.89-11.87,5.66-15.17
		c3.77-3.3,8.35-4.94,13.73-4.94c5.38,0,9.86,1.8,13.44,5.41C183.15,123.03,184.94,128.83,184.94,136.83z M159.34,135.14h13.77
		c0-5.18-0.55-9.72-1.65-13.6c-1.1-3.89-2.86-5.83-5.28-5.83c-2.42,0-4.17,1.87-5.24,5.62c-1.07,3.75-1.61,8.04-1.61,12.89V135.14z"
		/>
</g>
</svg>
