<?xml version="1.0" encoding="utf-8"?>
<!-- Generator: Adobe Illustrator 27.0.0, SVG Export Plug-In . SVG Version: 6.00 Build 0)  -->
<svg version="1.1" id="Capa_1" xmlns="http://www.w3.org/2000/svg" xmlns:xlink="http://www.w3.org/1999/xlink" x="0px" y="0px"
	 viewBox="0 0 64.6 64.6" style="enable-background:new 0 0 64.6 64.6;" xml:space="preserve">
<style type="text/css">
	.st0{fill:#FDF9F3;}
</style>
<g>
	<path class="st0" d="M55.4,54.3L55.4,54.3l-46.1,0l0,0c2.5-6.9,4.5-14.2,4.5-21.6v-7.5c0-10.2,8.3-18.5,18.5-18.5h0
		c10.2,0,18.5,8.3,18.5,18.5v7.5C50.8,40.1,52.9,47.4,55.4,54.3z"/>
</g>
<path class="st0" d="M21.8,56.3c1.5,4.4,5.6,7.5,10.5,7.5c4.9,0,9-3.2,10.5-7.5H21.8z"/>
<path class="st0" d="M32.3,4.9L32.3,4.9c1.7,0,3.3,0.2,4.8,0.7c0-0.1,0-0.3,0-0.4c0-2.7-2.2-4.9-4.9-4.9c-2.7,0-4.9,2.2-4.9,4.9
	c0,0.1,0,0.3,0,0.4C28.9,5.1,30.6,4.9,32.3,4.9z"/>
</svg>
