<?xml version="1.0" encoding="utf-8"?>
<!-- Generator: Adobe Illustrator 27.0.0, SVG Export Plug-In . SVG Version: 6.00 Build 0)  -->
<svg version="1.1" id="Capa_1" xmlns="http://www.w3.org/2000/svg" xmlns:xlink="http://www.w3.org/1999/xlink" x="0px" y="0px"
	 viewBox="0 0 64.6 64.6" style="enable-background:new 0 0 64.6 64.6;" xml:space="preserve">
<style type="text/css">
	.st0{fill:#36363C;}
</style>
<path class="st0" d="M63.4,57.8L42.7,37c6.5-9.2,5.6-21.9-2.6-30.1C30.9-2.3,16-2.3,6.9,6.9s-9.2,24.1,0,33.2
	c4.6,4.6,10.6,6.9,16.6,6.9c4.8,0,9.5-1.5,13.5-4.3l20.8,20.8c0.8,0.8,1.8,1.2,2.8,1.2s2-0.4,2.8-1.2C65,61.9,65,59.3,63.4,57.8z
	 M34.4,34.4c-6,6-15.9,6-21.9,0s-6-15.9,0-21.9c3-3,7-4.5,11-4.5s7.9,1.5,11,4.5C40.5,18.6,40.5,28.4,34.4,34.4z"/>
</svg>
